<?xml version="1.0" standalone="no"?>
<!DOCTYPE svg PUBLIC "-//W3C//DTD SVG 20010904//EN"
 "http://www.w3.org/TR/2001/REC-SVG-20010904/DTD/svg10.dtd">
<svg version="1.0" xmlns="http://www.w3.org/2000/svg"
 width="1000.000000pt" height="1000.000000pt" viewBox="0 0 1000.000000 1000.000000"
 preserveAspectRatio="xMidYMid meet">
<metadata>
Created by potrace 1.14, written by Peter Selinger 2001-2017
</metadata>
<g transform="translate(0.000000,1000.000000) scale(0.100000,-0.100000)"
fill="#000000" stroke="none">
<path d="M6755 9959 c-38 -21 -77 -39 -86 -39 -28 0 -292 -136 -322 -165 -27
-26 -271 -153 -327 -170 -30 -9 -169 -78 -260 -129 -36 -20 -128 -68 -204
-107 -76 -39 -155 -81 -175 -93 -43 -27 -229 -123 -292 -150 -82 -36 -629
-389 -629 -406 0 -5 -19 -19 -42 -31 -24 -12 -61 -35 -83 -52 -74 -57 -185
-185 -185 -214 0 -7 -7 -19 -16 -27 -14 -14 -120 -305 -143 -391 -5 -16 -22
-64 -38 -105 -17 -41 -45 -118 -63 -170 l-32 -95 -75 -47 c-40 -27 -78 -48
-83 -48 -5 0 -54 -27 -109 -60 -55 -33 -202 -110 -328 -171 -125 -62 -246
-124 -268 -139 -22 -15 -159 -87 -305 -161 -146 -73 -386 -198 -535 -277 -148
-80 -283 -152 -300 -160 -36 -19 -48 -34 -65 -81 -7 -20 -20 -54 -30 -76 -10
-22 -39 -87 -65 -145 -26 -58 -138 -289 -250 -515 -111 -225 -216 -439 -231
-475 -16 -36 -31 -67 -34 -70 -14 -13 -36 -62 -56 -125 -40 -126 -147 -410
-184 -490 -16 -33 -47 -114 -70 -180 -23 -66 -59 -155 -80 -198 -22 -43 -42
-94 -46 -113 -3 -19 -10 -37 -15 -40 -5 -3 -9 -15 -9 -27 0 -12 -16 -76 -35
-141 -47 -160 -46 -171 15 -245 27 -33 50 -64 50 -69 0 -10 317 -323 449 -442
52 -47 99 -89 105 -95 85 -77 168 -141 221 -171 28 -15 197 -120 270 -166 33
-21 85 -50 115 -64 30 -14 78 -38 105 -52 28 -15 65 -33 83 -41 17 -8 32 -18
32 -21 -1 -3 -20 -17 -43 -32 -23 -15 -94 -72 -157 -127 -63 -56 -128 -105
-145 -111 -64 -21 -266 -314 -338 -490 -46 -114 -52 -135 -37 -125 10 6 11 2
7 -16 -17 -72 -28 -197 -25 -292 2 -88 1 -104 -9 -90 -11 14 -13 10 -13 -31 0
-51 17 -135 31 -150 5 -6 9 -18 9 -28 0 -9 27 -73 61 -140 56 -114 87 -164 96
-154 2 2 27 -20 56 -48 54 -54 178 -133 286 -185 34 -16 70 -36 79 -44 21 -18
228 -84 417 -132 296 -75 672 -122 1045 -130 132 -3 271 -14 433 -35 131 -16
250 -30 265 -31 23 0 31 -9 55 -60 l28 -59 2885 0 2884 0 0 3285 0 3284 -21
53 c-12 29 -34 88 -50 130 l-28 78 49 37 50 37 0 1548 0 1548 -1587 -1 -1588
-1 -70 -39z m-4829 -3456 c22 -48 30 -140 15 -186 -8 -24 -37 -57 -91 -104
-43 -37 -84 -81 -90 -98 -7 -16 -27 -61 -45 -100 -18 -38 -50 -108 -70 -155
-21 -47 -57 -128 -81 -181 -23 -53 -62 -143 -84 -200 -23 -57 -48 -111 -55
-119 -7 -8 -16 -25 -19 -37 -4 -12 -18 -38 -32 -58 -14 -21 -56 -115 -94 -209
-37 -94 -87 -213 -109 -265 -23 -52 -41 -99 -41 -105 0 -6 -14 -40 -31 -76
-17 -36 -45 -103 -61 -150 -17 -47 -63 -159 -103 -250 -39 -91 -85 -202 -101
-248 -25 -72 -37 -90 -93 -145 -66 -65 -70 -63 -36 23 7 19 23 67 35 105 11
39 28 84 36 102 7 17 14 36 14 42 0 7 12 39 26 73 14 34 28 69 30 77 5 23 115
310 159 416 50 120 82 203 115 302 51 149 161 395 298 668 74 149 161 322 192
385 61 122 79 159 208 443 23 51 56 85 83 87 4 0 15 -17 25 -37z m2719 -822
c-80 -29 -126 -56 -185 -110 -72 -67 -133 -172 -207 -361 -41 -103 -61 -164
-123 -365 -12 -40 -21 -109 -25 -205 -3 -80 -10 -185 -15 -235 -6 -49 -10
-115 -10 -145 l-1 -55 -26 30 c-14 17 -49 57 -77 90 -28 32 -68 77 -88 100
-97 105 -217 299 -292 470 -62 143 -60 139 -90 220 -77 212 -133 412 -119 426
4 4 31 12 58 17 28 5 77 17 110 25 70 19 425 64 570 72 55 4 104 10 109 15 5
5 28 7 50 4 23 -2 93 2 156 9 63 8 147 14 185 15 l70 1 -50 -18z m863 -548
c61 -136 121 -373 142 -563 20 -183 27 -274 25 -325 -5 -128 -26 -384 -34
-420 -5 -22 -12 -62 -16 -90 -17 -132 -58 -267 -112 -365 -40 -74 -131 -190
-169 -217 -14 -10 -43 -32 -65 -50 -52 -42 -190 -108 -255 -121 -71 -15 -130
-8 -236 29 -118 41 -182 76 -238 134 -24 25 -49 45 -55 45 -18 0 -99 114 -167
237 -35 62 -69 112 -76 113 -35 1 -87 181 -116 405 -26 194 -18 266 29 273 19
2 20 -4 22 -94 2 -111 26 -215 80 -339 67 -155 143 -241 238 -271 102 -32 151
-4 233 133 93 157 112 251 113 558 1 132 -2 267 -6 300 -8 76 -33 214 -40 225
-3 5 -1 11 5 15 5 3 10 14 10 23 0 9 17 28 38 41 20 13 55 39 77 58 79 65 260
209 270 213 6 3 9 9 7 15 -2 5 -1 7 3 3 4 -3 34 11 68 33 33 21 76 43 96 48
50 13 74 18 87 20 6 0 25 -29 42 -66z m-899 -725 c11 -163 -4 -450 -27 -498
-11 -22 -24 -35 -37 -35 -35 0 -81 91 -90 180 -2 16 -9 77 -15 134 -7 57 -10
135 -8 173 3 64 6 72 38 101 76 70 115 96 123 82 4 -8 11 -69 16 -137z m-528
-235 c6 -16 22 -111 35 -213 37 -286 42 -304 98 -417 20 -40 36 -75 36 -78 0
-3 25 -46 55 -96 38 -62 83 -117 147 -180 51 -49 96 -89 100 -89 4 0 27 -14
51 -31 24 -17 75 -42 113 -56 38 -14 92 -34 119 -44 32 -12 77 -18 128 -19 70
0 120 -9 282 -52 28 -7 35 -12 25 -18 -42 -23 -229 -94 -255 -96 -39 -4 -105
-27 -105 -37 0 -5 -4 -5 -10 -2 -5 3 -10 2 -10 -4 0 -6 -7 -7 -17 -4 -12 5
-14 3 -8 -7 6 -10 4 -12 -8 -7 -9 3 -110 -25 -224 -63 -181 -60 -292 -94 -300
-91 -2 0 -22 -7 -45 -15 -45 -16 -57 -19 -228 -53 -232 -47 -357 -70 -395 -75
-22 -3 -58 -7 -80 -10 -62 -8 -165 -14 -481 -27 -306 -12 -312 -12 -547 30
-165 30 -337 83 -357 111 -3 3 -27 17 -54 30 -57 27 -414 216 -466 247 -93 55
-199 113 -205 113 -3 0 -23 13 -43 30 -20 16 -66 53 -102 82 -36 29 -121 111
-190 183 -69 71 -192 197 -273 280 -143 144 -197 205 -181 205 4 0 31 -14 61
-30 105 -60 398 -119 512 -104 36 5 51 3 51 -5 0 -9 23 -11 87 -7 57 3 92 1
100 -6 16 -13 368 5 528 27 339 47 469 69 540 91 44 13 175 47 290 74 198 48
280 72 535 154 247 80 499 189 603 260 21 14 42 26 47 26 6 0 10 5 10 10 0 21
21 9 31 -17z m268 -824 c23 -39 40 -73 38 -75 -5 -5 -55 75 -74 119 -20 45 -9
31 36 -44z m2851 -389 c0 -5 -19 -9 -42 -9 l-43 2 40 7 c22 4 41 8 43 9 1 0 2
-3 2 -9z m37 4 c-3 -3 -12 -4 -19 -1 -8 3 -5 6 6 6 11 1 17 -2 13 -5z m-4967
-505 c19 -9 58 -21 85 -25 28 -4 41 -9 30 -11 -11 -2 -54 5 -95 16 -81 20
-103 15 -98 -23 4 -26 57 -39 248 -62 113 -13 210 -15 595 -10 309 3 506 10
600 20 533 59 721 70 1035 61 174 -4 372 -2 575 7 171 7 432 13 580 12 240 -1
280 -3 358 -22 155 -38 158 -45 87 -180 -161 -300 -414 -640 -605 -811 -66
-59 -378 -268 -602 -404 -386 -234 -724 -364 -1188 -456 -207 -42 -379 -65
-735 -101 -168 -17 -325 -35 -350 -41 -25 -6 -133 -12 -240 -15 -107 -3 -196
-7 -198 -9 -3 -2 6 -6 19 -9 13 -2 85 -18 159 -35 142 -31 196 -40 425 -66
234 -26 483 -62 448 -64 -40 -2 -388 29 -428 39 -22 5 -58 10 -80 10 -22 0
-101 12 -175 25 -264 49 -361 65 -369 61 -9 -6 -147 37 -268 82 -157 59 -215
95 -424 257 -63 49 -159 183 -190 264 -39 103 -61 333 -48 486 12 127 26 174
98 325 44 93 178 280 281 393 19 22 44 50 55 64 26 33 174 158 249 211 66 46
92 48 166 11z m-465 -239 c-3 -5 -12 -10 -18 -10 -7 0 -6 4 3 10 19 12 23 12
15 0z m1688 -1997 c-7 -2 -21 -2 -30 0 -10 3 -4 5 12 5 17 0 24 -2 18 -5z m90
-10 c-7 -2 -19 -2 -25 0 -7 3 -2 5 12 5 14 0 19 -2 13 -5z m84 -9 c-3 -3 -12
-4 -19 -1 -8 3 -5 6 6 6 11 1 17 -2 13 -5z m456 -51 c-7 -2 -19 -2 -25 0 -7 3
-2 5 12 5 14 0 19 -2 13 -5z m110 -10 c-7 -2 -19 -2 -25 0 -7 3 -2 5 12 5 14
0 19 -2 13 -5z"/>
</g>
</svg>
